<svg width="509" height="351" viewBox="0 0 509 351" fill="none" xmlns="http://www.w3.org/2000/svg">
<path d="M154.43 104.078C149.004 89.4887 127.204 94.7748 129.062 110.23L152.788 307.538C153.582 314.142 159.185 319.112 165.837 319.112L215.505 319.112C224.667 319.112 231.018 309.973 227.824 301.386L154.43 104.078Z" fill="#612FAB"/>
<path d="M231.523 203.02C239.494 191.052 258.137 198.739 255.357 212.847L236.499 308.541C235.285 314.701 229.883 319.143 223.604 319.143L178.72 319.144C168.225 319.144 161.963 307.449 167.781 298.714L231.523 203.02Z" fill="#48319D" fill-opacity="0.6"/>
<path d="M354.522 103.715C359.949 89.125 381.748 94.4111 379.89 109.866L356.164 307.174C355.37 313.778 349.767 318.748 343.115 318.748L293.447 318.748C284.285 318.748 277.934 309.61 281.128 301.023L354.522 103.715Z" fill="#612FAB"/>
<path d="M277.43 202.656C269.458 190.689 250.815 198.376 253.595 212.484L272.453 308.177C273.667 314.338 279.069 318.779 285.348 318.78L330.232 318.781C340.727 318.781 346.989 307.086 341.171 298.351L277.43 202.656Z" fill="#48319D" fill-opacity="0.6"/>
</svg>
