<svg width="1024" height="1024" viewBox="0 0 1024 1024" fill="none" xmlns="http://www.w3.org/2000/svg">
<rect width="1024" height="1024" fill="white"/>
<path d="M276.282 200.442C270.855 185.852 249.055 191.138 250.914 206.593L312.968 722.649C313.762 729.254 319.365 734.224 326.017 734.224L455.923 734.224C465.085 734.224 471.436 725.085 468.241 716.498L276.282 200.442Z" fill="#612FAB"/>
<path d="M505.644 447.093C513.615 435.126 532.258 442.813 529.478 456.921L476.909 723.683C475.694 729.844 470.293 734.285 464.014 734.285L338.893 734.289C328.398 734.289 322.136 722.594 327.954 713.859L505.644 447.093Z" fill="#48319D" fill-opacity="0.6"/>
<path d="M753.623 199.715C759.05 185.125 780.849 190.411 778.991 205.866L716.936 721.922C716.142 728.527 710.539 733.496 703.887 733.496L573.982 733.496C564.82 733.496 558.469 724.358 561.663 715.771L753.623 199.715Z" fill="#612FAB"/>
<path d="M524.26 446.367C516.289 434.399 497.646 442.086 500.426 456.194L552.996 722.957C554.21 729.117 559.612 733.559 565.891 733.559L691.011 733.562C701.506 733.562 707.768 721.868 701.95 713.133L524.26 446.367Z" fill="#48319D" fill-opacity="0.6"/>
</svg>
